<?xml version="1.0" encoding="UTF-8"?>
<!DOCTYPE svg PUBLIC "-//W3C//DTD SVG 1.1//EN" "http://www.w3.org/Graphics/SVG/1.1/DTD/svg11.dtd">
<!-- Creator: CorelDRAW -->
<svg xmlns="http://www.w3.org/2000/svg" xml:space="preserve" width="66.8634mm" height="66.3708mm" version="1.1" style="shape-rendering:geometricPrecision; text-rendering:geometricPrecision; image-rendering:optimizeQuality; fill-rule:evenodd; clip-rule:evenodd"
viewBox="0 0 6680.09 6630.87"
 xmlns:xlink="http://www.w3.org/1999/xlink"
 xmlns:xodm="http://www.corel.com/coreldraw/odm/2003">
 <defs>
  <style type="text/css">
   <![CDATA[
    .fil1 {fill:#0A1626}
    .fil10 {fill:#0B0C14}
    .fil5 {fill:#878C8F}
    .fil12 {fill:#A7A8A8}
    .fil7 {fill:#AA6C37}
    .fil9 {fill:#AA7B67}
    .fil13 {fill:#B5B7B9}
    .fil14 {fill:#CB9B86}
    .fil11 {fill:#D5833C}
    .fil4 {fill:#D7D6D4}
    .fil6 {fill:#F4BDA2}
    .fil3 {fill:#F69A3A}
    .fil8 {fill:#F6CEAE}
    .fil0 {fill:#F7F7F7}
    .fil2 {fill:#F9EDD3}
   ]]>
  </style>
 </defs>
 <g id="Capa_x0020_1">
  <metadata id="CorelCorpID_0Corel-Layer"/>
  <path class="fil0" d="M3140.42 6.87c-683.76,35.94 -812.9,52.08 -1477.1,186.08 -433.29,87.42 -876.12,224.43 -1294.96,370.72 -157.99,55.19 -121.91,6.1 -168.99,243.27 -23.26,117.19 -42.94,234.19 -62.89,351.95 -128.97,761.07 -202.96,1527.05 -53.84,2288.12 90.5,461.81 271.5,857.12 478.5,1181.25 253.6,397.1 570.52,670.5 912.91,956.25 501.81,418.82 1105.66,739.8 1712.56,993.61 183.08,76.58 130.18,64.22 311.71,-1.52 459.63,-166.47 941.11,-450.21 1349.43,-722.22 406.24,-270.64 903.37,-714.64 1182.28,-1101.44 856.29,-1187.54 702.63,-2567.04 457.95,-3938.58 -46.51,-260.68 -23.67,-200.84 -159.27,-252.62 -101.22,-38.64 -213.94,-73.65 -318.19,-105.75 -220.74,-67.96 -415.13,-132.52 -640.36,-188.97 -692.64,-173.63 -1505.55,-298.2 -2229.73,-260.15z"/>
  <path class="fil1" d="M303.07 659.08c-48.73,211.89 -88.43,466.77 -122.58,688.05 -36.95,239.46 -66.87,481.67 -86.75,727.42 -40.83,504.78 -26.49,1017.49 89.5,1494.41 157.95,649.51 447.08,1126.8 875.31,1559.92 272.68,275.8 592.49,504.46 905.09,727.55l504.06 307.97c267.35,140.01 547.29,278.82 833.22,384.83 64.39,23.88 216.47,-54.68 305.97,-91.08 982.13,-399.54 2232.82,-1279.41 2656.68,-2224.27 192.45,-429 278.46,-777.19 330.97,-1300.67 68.94,-687.18 -72.28,-1534 -195.29,-2213.88 -15.65,-86.43 -22.93,-68.71 -107.36,-96.66l-464.77 -152.09c-805.38,-255.11 -1924.12,-460.31 -2846.33,-389.62 -745.66,57.16 -1359.45,161.92 -2060.4,374.97l-458.43 149.59c-52.23,16.93 -114.23,43.51 -158.9,53.56z"/>
  <path class="fil2" d="M2561.84 3833.92c8.5,-52.51 -1.1,-197.58 -0.92,-262.21 0.4,-140.98 -19.47,-530.09 22.53,-641.01 15.5,-40.95 35.64,-55.34 40.88,-95.01l-876.22 1.66c1.57,28.19 42.46,94.8 52.8,152.61 12.27,68.56 4.23,139.95 10.7,209.75l326.14 2.01 -0.27 361.12c-91.81,45.86 -297.12,36 -398.58,15.48 -383.65,-77.59 -559.21,-498.45 -448.27,-866.51 66.69,-221.24 226.45,-388.81 480.23,-425.03 190.24,-27.16 405.82,3.3 568.42,97.77 52.58,30.55 98.22,82.77 133.85,96.53l2.22 -479.88c-98.34,-29.94 -162.67,-59.93 -273.37,-78.99 -494.38,-85.1 -1027.16,31.48 -1265.45,477.69 -91.99,172.28 -140.8,363.65 -134.75,588.19 18.25,677.49 578.48,1014.81 1179.59,983.2 187.24,-9.84 436.3,-55.04 580.47,-137.36z"/>
  <path class="fil3" d="M1646.54 5316c82.67,98.44 661.98,469.5 778,536.24 189.89,109.22 673.03,367.51 890.62,438.46 95.08,31 817.18,-362.03 898.86,-410.31 177.28,-104.79 629.2,-396.4 785.45,-537.09 7.38,-25.83 2.93,-18.55 1.61,-22.79l-52.63 18.79c-86.87,31.6 -209.43,-172.72 -344.93,-225.53 -22.67,26.41 -45.43,43.65 -68.68,72.55 -98.26,122.13 -105.91,136.22 -229.22,194 -63.49,29.75 -64.49,74.59 -169.82,108.64 -108.07,34.94 -97.61,73.72 -182,99.06 -50.75,15.24 -78.32,-2.27 -111.98,30.58 -81.89,79.91 -115.81,42.41 -200.52,78.9 -95.69,41.22 -195.54,91.04 -339.01,38.62 -87.56,-31.99 -66.43,-71.22 -179.27,-98.28 -94.74,-22.71 -109.79,-79.37 -165.99,-123.5 -65.78,-51.66 -116.5,-35.73 -166.83,-112.48 -49.62,-75.68 -33.81,-125.88 -100.61,-178.41 -92.36,-72.64 -105.75,-112.82 -139.12,-140.15 -14.41,-11.8 -185.91,-69.09 -207.71,-70.48 -25.36,-1.64 -190.29,143.99 -234.57,183.22 -54.36,48.16 -177.22,161.37 -228.39,187.92l-203.01 -95.17c-5.55,7.82 -34.8,0.08 5.25,22.7 -44.12,-5.94 -19.42,-12.38 -35.51,4.52z"/>
  <path class="fil3" d="M2516.93 3804.03c-1.27,-99.62 -14.21,-741.13 7.93,-829.37 8.22,-32.74 26.68,-58.09 28.64,-91.34l-739.38 -1.94c0.96,38.7 21.68,87.85 27.29,132.16 2.88,22.68 1.58,124.44 18.72,139.14 33.65,22.6 250.54,-5.39 320.12,17.47l4.05 424.36c-82.97,50.29 -303.91,51.45 -410.82,34.8 -393.48,-61.29 -611.67,-412.97 -542.88,-854.31 69.26,-444.27 503.24,-609.8 865.88,-521.61 71.89,17.47 120.94,27.76 183.23,55.13 37.19,16.32 122.76,63.94 147,83.83l0.37 -358.99c-255.78,-126.77 -843.52,-133.81 -1120.95,51.18 -310.97,207.37 -472.95,503.06 -462.36,903.83 4.97,187.99 82.31,397.17 163.39,517.49 95.9,142.36 213.97,237.75 369.42,314.58 153.67,75.94 382.52,111.32 579.34,107.09 248.9,-5.34 360.59,-47.05 560.99,-123.48z"/>
  <path class="fil3" d="M3536.16 3098.77c7.11,56.3 2.36,232.48 -15.52,269.24 171.9,-41.38 394.5,67.88 653.89,-174.35 133.89,-125.03 224.34,-397.56 142.16,-638.66 -73.26,-214.94 -222.69,-318.61 -472.66,-355.9 -211.85,-31.61 -590.41,-22.73 -817.41,-14.27 5.09,63.94 18.4,28.38 22.48,202.64 9.31,398.03 6.04,924.67 0.63,1328.04 -1.41,104.89 -8.12,109.53 -36.74,195.5l394.35 -2.27c-19.53,-79.67 -29.38,-61.22 -31.95,-159.38l-2.03 -558.3c1.35,-236.53 -10.94,-505.68 2.77,-737.53 273.53,-15.71 588.33,-16.04 632.05,243.47 25.03,148.58 -20.98,260.24 -100.48,331.4 -77.81,69.63 -239.85,90.68 -371.54,70.36z"/>
  <path class="fil4" d="M3728.41 1542.17l127.77 6.48c-5.56,100.29 8.5,302.4 -12.86,387.9 18.43,-6.6 15.86,12.62 13.95,-81.84 -0.68,-33.68 -0.74,-67.91 -0.81,-101.62 -0.12,-54.72 -5.97,-144.3 5.09,-194.08 169.03,1.92 130.26,-8.98 130.57,194.08l-3.41 144.4c2.83,40.48 9.33,35.69 17.16,41.54 -20.95,-46.67 -11.69,-278.66 -9.12,-344.08l107.86 2.12 11.92 64.56 64.29 -0.24 4.23 -380.12c56.33,-11.41 140.73,-15.04 189.59,-1.13l4.25 104.32 179.84 27.63 7.06 402.32 124.49 10.05 -0.5 -246.21 200.48 3.8c11.16,88.09 -5.23,213.4 15.27,292.3l74.01 1.37 7.53 -139.1 223.75 -1.6 1.76 207.66 136.39 -5.05 5.23 86.12 95.16 14.9 53 -1.92 33.96 -3.09c-47.43,29.52 -32.37,-52.91 -27.63,-85.94l92.97 12.76c11.83,-35.62 -6.24,-136.5 -12.17,-172.87 -8.38,-51.42 -13.02,-109.8 -18.55,-164.74 -5.41,-53.81 -19.5,-292.36 -51.99,-321.59 -50.19,-49.51 -797.85,-206.15 -931.78,-233.01 -336.16,-67.44 -709.96,-98.11 -1054.99,-114.9l7.01 715.14c0.6,46.27 -17.17,181.92 23.91,200.53 31.52,-50.57 -5.72,-372.72 25.38,-464.63 36.45,-10.49 96.53,-5.6 125.12,11.86 23.34,30.99 9.92,84.2 14.82,125.91z"/>
  <path class="fil0" d="M5804.34 3843.25l3.99 -418.51c-50.06,21.66 -261.19,248.54 -578.67,129.43 -167.78,-62.94 -284.47,-243.6 -279.81,-481.77 9.32,-475.98 440.67,-603.38 745.61,-398.11 29.24,19.69 87.09,78.61 103.22,80.44l3.14 -431.58c-277.28,-124.66 -626.8,-127.09 -892.42,31.96 -199.82,119.65 -377.18,379.84 -375.28,725.97 1.94,354.49 166.45,597.19 374.64,726.58 240.77,149.63 618.16,158.66 895.58,35.58z"/>
  <path class="fil4" d="M2051.12 1704.12l14.74 3.83c-12.2,-32.76 0,-87.51 0,-127.05 23.82,29.8 87.88,17.69 114.8,-3.01l-4.76 134.29c24.4,-2.26 14.71,-17.52 14.48,-51.12 -0.19,-27.31 -1.2,-54.75 -1.43,-82.07l144.08 -1.43c26.68,13.69 17.52,65.07 18.66,94.31 33.76,18.33 193.49,32.62 240.09,29.43 -3.98,38.56 10.87,13.92 -26.76,20.69 25.16,16.27 17.4,10.85 36.61,10.1 1.77,-48.9 -4.2,-69.9 3.73,-124.9l97.91 -9.39c16.25,118.49 -12.74,274.31 -8.44,325.98l-23.1 -26.48 1.73 49.54c28.72,-0.68 28.8,15.75 32.44,-83.6 3.78,-103.21 -0.86,-300.96 8.26,-376.2 42.08,-14.71 122.41,-9.13 168.45,-0.21 23.99,78.65 -11.06,177.7 20.72,245.94l34.15 -5c7.48,-23.6 -1.06,17.35 -1.61,-9.75 -0.22,-10.6 -5.57,-1.48 1.3,-18.26l63.07 -6.19c10.67,-72.34 -0.81,-87.11 13.06,-124.48l97.54 2.99 -1.11 124.47 47.93 -4.81c9.64,-39.26 10.3,-681.34 1.54,-735.7 -146.27,-12.61 -387.84,17.78 -541.37,32.44 -175.91,16.79 -346.3,40.66 -519.19,70.57 -267.17,46.21 -466.02,99.44 -719.32,161.27 -48.41,11.82 -198.7,48.76 -229.31,65.29l-68.53 498.08c26.27,-9.02 29.21,-14.06 52.16,-25.27l155.61 -71.82c282.02,-113.33 458.49,-119.92 765.66,-115.46l-3.78 132.97z"/>
  <path class="fil5" d="M2051.12 1704.12l3.78 -132.97c-307.17,-4.46 -483.65,2.13 -765.66,115.46l-155.61 71.82c-22.95,11.21 -25.9,16.24 -52.16,25.27l68.53 -498.08c30.6,-16.52 180.89,-53.47 229.31,-65.29 253.29,-61.83 452.15,-115.06 719.32,-161.27 172.9,-29.91 343.29,-53.78 519.19,-70.57 153.54,-14.66 395.1,-45.05 541.37,-32.44 8.76,54.36 8.1,696.44 -1.54,735.7l-47.93 4.81 1.11 -124.47 -97.54 -2.99c-13.87,37.38 -2.39,52.14 -13.06,124.48l-63.07 6.19c-6.87,16.78 -1.52,7.66 -1.3,18.26 0.55,27.1 9.09,-13.85 1.61,9.75l-34.15 5c-31.78,-68.24 3.27,-167.29 -20.72,-245.94 -46.05,-8.92 -126.37,-14.5 -168.45,0.21 -9.12,75.24 -4.49,272.98 -8.26,376.2 -3.64,99.35 -3.72,82.92 -32.44,83.6l-5.05 141.33 121.11 -7.38 7.23 -133.34c71.99,-28.01 371.15,-8.09 472.53,-23.25l1.99 -1090.7c-68.21,-17.74 -546.39,17.61 -645.89,28.04 -489.48,51.29 -1080.38,165.61 -1550.47,322.66 -22.04,7.36 -40.11,14.31 -63.18,22.88l-64.73 28.67c-31.93,71.83 -135.88,868.26 -129.85,962.83l97.23 -108.36c31.15,-35.66 74.37,-73.91 114.47,-105.33 293.7,-230.07 626.87,-307.26 1022.28,-280.79z"/>
  <path class="fil3" d="M5763.02 3513.31c-73.73,31.52 -102.41,82.29 -269.54,103.2 -359.75,45 -588.32,-174.23 -585.57,-543.88 1.77,-239.27 102.62,-400.62 269.13,-484.21 309.71,-155.49 564.42,72.1 582.12,76.68l1.74 -310.5c-83.22,-53 -342.36,-85.36 -471.35,-76.04 -162.96,11.76 -303.66,63.12 -406.05,143.52 -463.92,364.24 -413.55,1206.43 190.08,1416.18 187.49,65.16 397.44,69.22 598.95,7.03 99.93,-30.83 102.31,-4.58 90.5,-331.99z"/>
  <path class="fil0" d="M1868.19 474.51c-19.07,51.84 -61.02,224 -84.77,250.22 16.07,15.13 0.8,10.97 30.82,13.09 68.48,-0.69 267.27,-46.89 352,-61.47 701.59,-120.79 1257.25,-113.37 1963.36,-48.97 124.41,11.34 243.58,26.68 367.52,47.94 72.49,12.44 312.16,63.42 363.71,58.98l51.49 10.92c-17.35,-75 -88.85,-176.29 -77.36,-265.82 -411.95,-94.87 -1054.23,-158.24 -1483.33,-156.09 -262.86,1.31 -520.87,16.09 -777.81,43.32 -154.23,16.34 -571.75,69.59 -705.63,107.9z"/>
  <path class="fil6" d="M3588.52 5255.69c58.18,-6.96 57.72,-8.9 63.17,-76.83 2.52,-0.99 6.95,-0.59 7.97,-1.55 11.11,-10.48 4.99,7.93 13.16,-19.65 -17.67,-28.74 -40.38,-51.86 -58.52,-99.15 211.97,78.97 421.49,383.65 524.68,188.01 -35.47,-65.63 -328.28,-215.32 -346.17,-370.88 53,8.7 174.49,122.66 256.3,180.75 41.65,29.56 85.32,57.24 124.39,86.97 56.29,42.84 64.26,74.27 140.29,24.95 34.13,-70.73 -47.4,-140.95 -79.89,-178.05l-424.98 -409.51 -12.86 20.24c-7.64,11.2 -5.15,9.69 -14.56,18.32 -16.46,15.1 -23.55,14.45 -40.52,27.06 -84.74,63.02 -146.97,132.21 -236.74,145.08 -133.03,19.08 -347.02,-10.35 -342.95,-142.83l39.47 -19.95c-2.24,-89.83 21.56,-74.33 71.54,-112.54 33.53,-25.64 58.46,-55.95 82.34,-95.81 45.32,-75.63 76.48,-167.83 177.39,-175.24 -14.55,-26.19 3.59,-4.11 -17.3,-15.76 -50.37,-28.08 -370.85,-5.41 -425.35,-2.46 -184.07,9.98 -284.41,-92.56 -384.5,-93.72 -53.91,-4.51 -128.38,76.84 -163.19,117.26 -67.13,77.98 -38.45,73.8 116.53,167.2 239.01,144.03 86.09,104.48 205.52,301.5 103.87,171.35 239.81,290.93 472.73,296.96 97.07,2.52 100.6,-9.8 154.63,81.82 16.92,28.71 24.29,52.69 41.53,85.24l39.7 54.71c17.87,18.11 8.24,-2.97 16.16,17.83z"/>
  <path class="fil5" d="M3732.72 1936.18l-4.31 -394.01c-4.9,-41.71 8.52,-94.92 -14.82,-125.91 -28.59,-17.46 -88.68,-22.35 -125.12,-11.86 -31.1,91.9 6.14,414.05 -25.38,464.63 -41.08,-18.61 -23.31,-154.27 -23.91,-200.53l-7.01 -715.14c345.04,16.79 718.84,47.47 1054.99,114.9 133.92,26.86 881.58,183.5 931.78,233.01 32.49,29.23 46.58,267.78 51.99,321.59 5.53,54.94 10.17,113.31 18.55,164.74 5.92,36.37 24,137.25 12.17,172.87l-92.97 -12.76c-4.74,33.03 -19.79,115.46 27.63,85.94l-33.96 3.09c28.35,22.46 136.4,28.81 181.76,40.14 61.11,15.27 118.87,37.19 177.39,54.3 -26.84,-159.74 -77.11,-802.26 -125.32,-891.76 -24.18,-33.36 -473.26,-151.46 -515.95,-161.88 -557.42,-136.09 -1220.81,-262.81 -1803.34,-249.22l2.84 1098.79 312.98 9.07z"/>
  <path class="fil5" d="M4180.82 1661.38l-64.29 0.24 -6.07 282.03 -104.58 -4.63c-7.83,-5.85 -14.34,-1.06 -17.16,-41.54l3.41 -144.4c-0.31,-203.06 38.46,-192.16 -130.57,-194.08 -11.06,49.77 -5.21,139.36 -5.09,194.08 0.07,33.72 0.13,67.95 0.81,101.62 1.91,94.46 4.49,75.24 -13.95,81.84l-20.18 1.78c68.19,33.19 465.65,31.28 661.22,373.99 19.4,34.02 29.36,64.58 51.49,100.53 1.71,-1.05 4.2,-4.99 4.87,-3.55 0.68,1.45 3.89,-2.84 4.8,-3.64 0.91,-0.79 3.53,-2.8 4.63,-3.81 1.09,-1.01 3.2,-2.92 4.38,-4.07 10.91,-10.74 10.19,-11.31 19.41,-22.93 79.07,-99.57 193.99,-183.98 317.63,-240.41 209.22,-95.49 310.61,-96.58 557.8,-95.8l-95.16 -14.9 -5.23 -86.12 -136.39 5.05 -1.76 -207.66 -223.75 1.6 -7.53 139.1 -74.01 -1.37c-20.49,-78.9 -4.11,-204.21 -15.27,-292.3l-200.48 -3.8 0.5 246.21 -124.49 -10.05 -7.06 -402.32 -179.84 -27.63c-18.32,17.31 -13.54,21.6 -13.73,54.97l1.07 472.53 -184.02 0.67 -1.39 -251.23z"/>
  <path class="fil7" d="M1646.54 5316c16.08,-16.89 -8.61,-10.46 35.51,-4.52 -40.04,-22.62 -10.8,-14.88 -5.25,-22.7l203.01 95.17c51.16,-26.56 174.03,-139.76 228.39,-187.92 44.28,-39.23 209.21,-184.86 234.57,-183.22 21.8,1.4 193.3,58.69 207.71,70.48 33.37,27.32 46.76,67.51 139.12,140.15 66.8,52.53 50.98,102.73 100.61,178.41 50.33,76.76 101.06,60.82 166.83,112.48 56.21,44.14 71.25,100.8 165.99,123.5 112.84,27.05 91.71,66.29 179.27,98.28 143.48,52.42 243.32,2.6 339.01,-38.62 84.71,-36.49 118.63,1.01 200.52,-78.9 33.66,-32.85 61.22,-15.35 111.98,-30.58 84.39,-25.34 73.93,-64.12 182,-99.06 105.33,-34.05 106.33,-78.89 169.82,-108.64 123.3,-57.78 130.96,-71.87 229.22,-194 23.25,-28.9 46.01,-46.15 68.68,-72.55 135.49,52.81 258.06,257.13 344.93,225.53l52.63 -18.79c1.32,4.24 5.77,-3.04 -1.61,22.79 77.67,-39.82 517.89,-440.93 556.47,-498.87 -83.16,31.35 -578.51,338.4 -622.53,327.23 -29.6,-7.52 -229.9,-200.09 -279.14,-223.92 -77.12,30.33 -96.63,75.1 -158.86,122.97 -36.79,28.29 -60,24.51 -73.14,69.97 -18.66,64.61 -37.17,118.79 -129.49,149.85 -70.39,23.69 -49,-5.35 -92.56,51.73 -54.45,71.35 -129.84,52.66 -186.92,100.68 -27.32,22.98 -36.93,37.32 -79.24,55.81 -47.2,20.64 -80.82,14.26 -115.54,26.67 -29.94,10.69 -42.24,47.25 -80.96,65.16 -45.75,21.17 -68.9,-1.43 -119.1,24.29 -144.19,73.86 -344.12,99.81 -390.27,-65.68 -131.12,12.75 -153.6,-30.51 -215.92,-107.1 -23.98,-29.46 -28.73,-22.39 -72.37,-38.34 -57.18,-20.9 -89.41,-45.4 -111.74,-99.11 -36.58,-87.95 11.65,-75.67 -73.6,-146.32 -93.41,-77.41 -148.85,-184.79 -219.35,-212.2 -69.82,-27.15 -86.95,-14.54 -155.89,-55.39 -80.79,-47.88 -114.79,7.08 -263.5,118.1 -292.32,218.23 -178.12,239.1 -380.07,136.41l-584.11 -281.62c33.53,58 449.35,436.71 494.93,452.38z"/>
  <path class="fil3" d="M350.89 2054.01l5.16 52.76c2.26,-18.69 22.06,-127.95 21.3,-137.34 0.56,25.58 3.65,55.12 2.88,79.91 -1.23,39.53 -25.13,59.55 -12.75,160.38 6.26,51.04 18.97,17.52 26.3,65.16l24.51 -24.44c11.3,22.33 6.28,14.55 11.81,40.72 9.5,-31.85 48.44,-61.71 67.89,-84.1 27.74,-31.93 5.6,-22.47 29.42,-31.61 9.81,35.57 8.1,38.58 11.72,81.61 -0.01,-14.82 6.45,-147.68 37.94,-124.52 0.04,0.03 0.54,1.12 0.15,1.18 0,-37.1 -2.09,-44.58 17.24,-67.63 13.72,-111.65 121.69,-981.77 143.21,-1015.09 27.36,-42.37 697.17,-215.01 724.62,-228.73 -31.25,-1.02 -10.38,3.84 -28.23,-14.32 65,-42.02 67.43,-186.33 97.82,-255.98 -158.12,23.59 -370.29,90.12 -522.81,136.38 -82.86,25.15 -171.5,52.75 -249.29,78.95l-184.35 62.57c-6.94,2.41 -28.03,9.01 -30.82,10.13l-29.77 16.44c-32.82,151.7 -191.1,1103.68 -163.94,1197.56z"/>
  <path class="fil3" d="M5236.5 825.18c88.75,40.77 513.66,135.95 709.52,218.98 41.83,179.71 132.18,861.71 141.44,1047.07 32.12,30.96 11.25,80.38 29.22,118.63l2.35 -91.49c16.55,33.46 -2.72,70.71 41.14,106.61 2.68,2.2 8.66,11.79 29.67,5.57 46.48,-13.74 16.71,-38.14 79.35,-61.83 25.93,-9.8 19.52,-0.39 34,6.6l25.23 -117.21 2.93 116.85c2.96,-43.78 -6.24,-79.18 3.75,-119.16 18.47,-79.26 -124.01,-1057.93 -156.81,-1175.87 -14.03,-50.44 -44.23,-44.19 -98.34,-62.08 -241.5,-79.89 -390.43,-133.91 -647.03,-198.57 -54.92,-13.85 -224.16,-50.91 -264.47,-70.89 29.35,56.6 44.29,206.91 68.08,276.79z"/>
  <path class="fil2" d="M3536.16 3098.77c131.7,20.31 293.73,-0.73 371.54,-70.36 79.5,-71.16 125.5,-182.82 100.48,-331.4 -43.72,-259.52 -358.51,-259.18 -632.05,-243.47 -13.71,231.85 -1.42,501 -2.77,737.53l2.03 558.3c2.57,98.16 12.42,79.72 31.95,159.38l-394.35 2.27c28.61,-85.97 35.33,-90.61 36.74,-195.5 5.41,-403.36 8.68,-930.01 -0.63,-1328.04 -4.08,-174.26 -17.39,-138.7 -22.48,-202.64 227.01,-8.46 605.56,-17.34 817.41,14.27 249.97,37.29 399.4,140.96 472.66,355.9 82.18,241.1 -8.26,513.63 -142.16,638.66 -259.39,242.22 -481.99,132.97 -653.89,174.35l-7.96 32.35c240.87,40.85 543.8,-17.01 706.75,-187.31 144.02,-150.51 236.05,-426.27 135.77,-695.43 -150.02,-402.69 -602.19,-385.07 -969.74,-381.28 -147.24,1.52 -304.29,-3.8 -449.23,5.49 39.91,137.8 68.4,-58.13 66.56,414.83l-1.49 972.75c-0.07,78.74 4.41,166.27 -0.33,243.83 -5.52,90.49 -47.67,119.02 -66.39,181.65l554.5 0.97c-10.26,-34.33 -49.58,-72.81 -63.81,-129.06 -12.95,-51.17 -9.65,-1281.64 -7.86,-1330.92 239.2,-5.34 518.73,-18.85 553.19,221.89 17.85,124.67 -33.31,243.25 -102.28,288.13 -101.29,65.92 -203.71,48.05 -334.55,55.52l2.39 37.36z"/>
  <path class="fil8" d="M3585.27 4547.68c-33.33,-73.55 87.89,-117.1 143.05,-142.15 59.1,-26.83 56.25,-17.22 120.82,-24.06 125.69,-13.31 35.85,102.48 260.16,174.09 123.9,39.55 160.35,6.32 252.88,-27.5 -12.03,48.8 -25.08,76.3 -50.54,113.29 -18.37,26.7 -48.84,50.48 -66.77,78.37 41.01,-1.37 146.09,-40.71 181.2,-55.81 0.76,166.22 30.31,153.12 -53.9,283.82 -25.2,39.12 -9.85,1.44 -17.56,43.38 20.81,16.62 -2.14,5.43 28.99,14.08 51.69,-37.77 130.38,-111.52 133.92,-206.29 7.01,-90.5 -8.09,-165.92 -31.58,-245.91 -19.81,-67.46 -64.4,-137.92 -76.52,-193.78l102.7 -49.11c1.33,-1.04 3.21,-2.58 4.48,-3.7l30.73 -38.45c-11.13,-11.71 -12.66,-12.75 -28.39,-25.93 -55.82,8.16 -112.31,46.32 -169.79,56.59 -125.19,22.38 -458.64,-138.56 -581.08,-82.69 -60.81,27.75 -273.97,114.23 -303.28,154.2 -30.73,41.9 -61.92,108.62 -92.88,135.22 -18.66,16.04 -110.34,76.74 -120.14,98.33 31.25,60.47 115.03,67.72 188.2,46.15 67.83,-19.99 114.3,-67.1 145.29,-102.13z"/>
  <path class="fil9" d="M3148.57 5036.93l41.22 48.51c94.9,-31.92 167.64,1.69 203.24,92.01 21.71,55.1 7.07,61.57 -5.04,107.47 79.86,-8.12 122.25,19.39 156.82,88.68 20.96,41.99 5.81,34.27 4.68,82.03l13.65 5.13c58.53,20.4 76.64,46.38 148.93,36.37 -3.93,-40.5 0.63,-31.53 -28.38,-50.53 -42.32,-27.71 -87.94,-52.2 -120,-90.66 -42.64,-51.14 -76.42,-55.61 -117.66,-160.07 38.44,41.61 94.25,88.05 150.35,110.29 13.16,-13.16 22.48,-10.52 32.02,-6.5 -19.35,-17.1 -27.41,-13.65 -39.88,-43.97 -7.92,-20.8 1.71,0.28 -16.16,-17.83l-39.7 -54.71c-17.24,-32.55 -24.61,-56.53 -41.53,-85.24 -54.03,-91.62 -57.56,-79.31 -154.63,-81.82 -232.92,-6.03 -368.85,-125.61 -472.73,-296.96 -119.43,-197.02 33.49,-157.47 -205.52,-301.5 -154.98,-93.4 -183.66,-89.23 -116.53,-167.2 34.81,-40.42 109.28,-121.77 163.19,-117.26 -43.17,-50.66 -98.74,-45.66 -143.85,-7.3 -31.13,26.48 -81,74.15 -105.12,106.63 -34.67,46.69 -139.04,200.53 -151.35,269.68 71.33,56.68 232.9,90.83 313.59,259.42 36.37,75.99 48.79,123.98 96.25,191.16 9.5,13.46 19.89,29.95 27.54,40.39 20.29,27.69 82.13,100.16 119.05,107.54 71.05,-75.65 197.66,-178.77 287.55,-63.74z"/>
  <path class="fil7" d="M401.89 3411.12c29.33,165.46 88.93,356.45 144.69,503.62 31.91,84.2 171.45,393.05 216.67,432.13l260.07 -402.97c-47.07,-62.98 -212.61,-162.71 -326.89,-406.68 -113.59,-242.49 -89.53,-381.98 -110.67,-583.21l-11.3 -43.74c-15.07,61.82 10.39,96.9 -1.51,159.21 -9.62,50.38 -30.61,72.32 -47.61,111.58l-67.35 178.6c-11.28,26.13 -14.08,25.19 -17.76,59.8 -20.95,6.04 21.26,7.58 -5.79,-5.27 -12.42,-5.89 14.5,-20.52 -5.73,-0.73 -5.59,5.46 -4.3,9.26 -5.7,22.58 -12.62,-46.92 -0.36,-11.93 -21.11,-24.92z"/>
  <path class="fil10" d="M3532.06 4245.1c-100.92,7.4 -132.08,99.61 -177.39,175.24 -23.89,39.86 -48.81,70.17 -82.34,95.81 -49.98,38.21 -73.78,22.72 -71.54,112.54 0.53,55.45 77.49,91.07 127.16,99.64 146.49,25.23 243.69,-71.62 329.12,-123.75 22.06,-13.46 46.92,-28.61 72.25,-39.02 44.78,-18.39 61.93,-18.74 79.62,15.21l424.98 409.51c32.49,37.11 114.01,107.32 79.89,178.05l26.3 18.34c38.15,-61.24 -17.64,-126.92 -31.2,-180.53 75.6,21.81 48.52,32.57 49.32,33.96 123.15,-0.41 138.87,-143.75 196.68,-204.62l41.29 -37.21c14.71,-7.85 43.61,-76.04 54.14,-97.06 23.09,-46.11 36.03,-69.93 28.97,-130.95l-158.22 223.03c-0.76,1.25 -2.3,3.81 -3.56,5.62 -3.55,94.77 -82.23,168.51 -133.92,206.29 -31.13,-8.64 -8.18,2.55 -28.99,-14.08l-266.25 -277.49 48.73 -26.51c-62.65,-39.23 -113.24,-33.26 -169.67,-89.97 -25.76,-25.89 -40.41,-39.79 -63.38,-63.8 -58.81,-61.45 -45,-105.08 -204.58,-45.23l-84.01 40.84c-1.71,1.07 -3.67,2.4 -5.41,3.5l-24.76 15.22c-30.99,35.04 -77.47,82.14 -145.29,102.13 -73.17,21.57 -156.95,14.33 -188.2,-46.15 9.8,-21.59 101.47,-82.28 120.14,-98.33 30.96,-26.61 62.15,-93.32 92.88,-135.22 29.3,-39.96 242.46,-126.44 303.28,-154.2 122.44,-55.87 455.88,105.07 581.08,82.69 57.48,-10.27 113.97,-48.42 169.79,-56.59 15.74,13.18 17.26,14.22 28.39,25.93l43.25 44.34c12.85,16.21 20.1,28.24 35.07,49.23 21.95,30.77 46.65,71.52 63.98,105.04 32.48,62.81 87.07,171.13 94.09,247.06 -41.64,35.71 -141.58,60.72 -171.78,101.18 -19.88,26.73 -8.51,8.11 0.04,15.1 51.64,-5.3 173.67,-92.1 195.58,-116.27l-23.85 -121.3c50.68,7.39 39.03,3.87 60.29,50.63 31.54,69.37 13.84,2.53 29.25,100.3 8.03,50.86 14.81,45.91 37.4,85.16l48.08 62.89c-18.8,-25.27 -2.86,-12.76 22.35,-16.6 5.41,-17.24 5.34,-2.09 -14.7,-13.44 -40.92,-7.43 -18.24,-12.39 -47.04,-100.69 -35.59,-109.08 -78.55,-215.21 -134.45,-313.05 -49.09,-85.9 -195.79,-303.06 -283.84,-305.37l-2.27 22.31c12.54,21.76 19.46,23.31 24.54,45.88 -20.25,0.79 -39.8,4.63 -61.14,10.64l-27.77 12.17c-1.52,0.89 -3.53,2.39 -5.04,3.31 -1.53,0.92 -3.54,2.4 -5.09,3.32 -42.98,25.74 -122.95,43.17 -175.06,14.75l-8.36 -5.17c-21.87,-9.49 1.56,-1.39 -19.3,-4.01 -141.19,-17.67 -74.67,-36.52 -204.68,-66.32 -29.83,-6.84 -75.32,-2.32 -124.01,-4 -46.09,-1.59 -79.35,-9.27 -114.65,1.44 -89.18,27.07 -77.03,41.28 -79.8,42.75 -10.56,5.63 -14.1,-9.02 -62.19,18.74l-63.89 37.78c-13.73,5.59 -0.26,0.42 -20.61,6.12 11.24,-33.79 18.04,-15.63 12.58,-32.71l-32.26 -4.08z"/>
  <path class="fil11" d="M350.89 2054.01c-24.13,38.62 -27.41,301.32 -28.46,341.93 -10.16,391.05 4.24,631.28 79.47,1015.18 20.75,12.99 8.49,-22 21.11,24.92 1.41,-13.32 0.11,-17.11 5.7,-22.58 20.23,-19.79 -6.68,-5.17 5.73,0.73 27.05,12.85 -15.16,11.31 5.79,5.27 3.69,-34.62 6.48,-33.68 17.76,-59.8l67.35 -178.6c16.99,-39.25 37.98,-61.19 47.61,-111.58 11.9,-62.31 -13.56,-97.39 1.51,-159.21 15.31,-60.19 -2.27,-334.01 -1.66,-421.28 1.01,-147.11 13.35,-279.57 21.65,-422.89 -19.33,23.05 -17.24,30.53 -17.24,67.63 0.39,-0.06 -0.11,-1.15 -0.15,-1.18 -31.49,-23.16 -37.95,109.71 -37.94,124.52 -3.62,-43.03 -1.91,-46.05 -11.72,-81.61 -23.82,9.14 -1.68,-0.32 -29.42,31.61 -19.44,22.39 -58.39,52.25 -67.89,84.1 -5.52,-26.18 -0.51,-18.39 -11.81,-40.72l-24.51 24.44c-7.32,-47.64 -20.03,-14.12 -26.3,-65.16 -12.38,-100.83 11.52,-120.85 12.75,-160.38 0.77,-24.79 -2.32,-54.33 -2.88,-79.91 0.76,9.39 -19.04,118.65 -21.3,137.34l-5.16 -52.76z"/>
  <path class="fil11" d="M6087.45 2091.23c4.11,141.38 16.8,279.04 17.02,423.12 0.15,98.5 -20.79,352.89 -8.78,424.54 8.56,34.7 4.06,47.53 1.36,83.29 53.35,33.96 168.71,240.51 182.63,312.28 8.89,-28.32 5.46,-29.98 23.38,-50.32 29.82,-195.82 50.29,-383.61 56.9,-592.07 1.46,-46.03 8.81,-582.61 -24.88,-636.27 -9.99,39.98 -0.79,75.38 -3.75,119.16l-2.93 -116.85 -25.23 117.21c-14.48,-6.99 -8.07,-16.4 -34,-6.6 -62.63,23.69 -32.87,48.09 -79.35,61.83 -21.01,6.21 -26.99,-3.38 -29.67,-5.57 -43.86,-35.9 -24.59,-73.15 -41.14,-106.61l-2.35 91.49c-17.97,-38.24 2.9,-87.67 -29.22,-118.63z"/>
  <path class="fil7" d="M6303.06 3284.15c-17.91,20.34 -14.49,22 -23.38,50.32 -13.92,-71.76 -129.28,-278.32 -182.63,-312.28 2.7,-35.77 7.2,-48.59 -1.36,-83.29 -18.79,29.23 -28.73,201.71 -36.11,252.38 -11.46,78.77 -38.54,169.33 -40.77,244.85l-4.14 431.82c-1.81,75.36 -5.16,58.82 -38.55,101.47 30.23,41.04 53.54,84.81 81.74,109.18 1.66,1.44 4.28,3.58 6.59,5.11 6.64,-23.75 106.37,-267.19 139.93,-374.86 29.79,-95.58 91.34,-325.58 98.67,-424.69z"/>
  <path class="fil0" d="M4501.07 4142.16c88.06,2.32 234.75,219.47 283.84,305.37 55.91,97.84 98.87,203.97 134.45,313.05 28.79,88.3 6.11,93.25 47.04,100.69 10.28,-17.27 1.68,-3.24 13.07,-16.05 40.64,-45.76 28.56,-31.3 1.49,-163.69l-46.67 -129.28c-28.99,-28.27 -68.8,-123.36 -84.85,-161.85 69.38,-33.92 192.77,-102.71 214.18,-158.91 6.76,-69.23 -166.42,-150.96 -240.09,-169.18 3.72,-3.85 -9.27,-17.43 58.62,-14.52 24.46,1.05 33.79,2.34 59.72,0.81l-0.04 30.67c24.83,16.26 34.51,28.11 74.32,14.13 20.49,-7.2 0.58,6.72 17.49,-8.8l-88.24 -101.88c-72.22,-43.81 -278.13,92.61 -450.57,134.23 2,18.11 -0.38,10.01 6.22,25.22z"/>
  <path class="fil10" d="M3077.34 5056.54c14.93,4.06 45.77,31.69 49.78,58.72 4.02,27.04 -23.47,51.94 -37.63,71.89 -28.69,40.41 -65.72,114.01 -93.12,140.37 -52.81,-1.94 -77.48,-31.92 -90.08,-76.56 -11.52,7.47 -26.22,-14.36 -21.22,35.7 2.49,24.95 44.61,55.56 62.34,62.27 27.6,10.45 36.3,7.36 65.83,7.53 9.83,-15.42 1.28,-0.63 11.15,-15.2 30.46,-44.94 8.62,-35.46 37.75,-27.05 -56.35,66.1 49.11,164.35 52.64,166.07l149.9 20.34c39.74,10.21 -5.52,12.12 10.86,-0.11 -2.01,5.25 -6.32,-5.95 -6.14,25.66 0.11,21.12 -3.57,4.22 3.89,23.33 30.84,79.22 205.89,91.65 253.73,33.58 11.88,-14.42 4.28,-9.9 3.69,-11.16 -0.59,-1.25 30.57,17.78 -7.03,-5.29 -20,-12.27 23.27,1.52 -12.43,-3.75 -47.17,6.08 -97.95,38.71 -157.18,11.31 -45.86,-21.21 -64.66,-72.93 -36.27,-125.88 58.52,3.49 41.39,69.72 131.32,9.69 -34.87,-27.34 1.31,-19.42 -21.35,-55.64 -11.25,23.17 4.22,69.44 -34.48,71.98 -40.93,2.69 1.55,-15.01 -69.84,-35.13 11.66,-55.22 57.69,-122.73 131.55,-93.46 87.21,34.56 6.94,135.66 -5.44,176.03l41.92 -0.82c-4.52,-36.34 15.4,-4.43 29.34,-71.46 19.64,37.87 11.06,37.83 67.63,42.29l-16.77 -23.88c-2.14,-2.24 -5.66,-4.79 -8.51,-7.14l-13.65 -5.13c1.14,-47.77 16.28,-40.04 -4.68,-82.03 -34.58,-69.29 -76.97,-96.8 -156.82,-88.68 12.11,-45.9 26.74,-52.37 5.04,-107.47 -35.6,-90.33 -108.34,-123.93 -203.24,-92.01l-41.22 -48.51c-22.08,-4.35 -28.24,-6.77 -52.52,4.62l-18.71 14.99z"/>
  <path class="fil9" d="M3585.27 4547.68l24.76 -15.22c1.75,-1.1 3.71,-2.43 5.41,-3.5l84.01 -40.84c159.58,-59.85 145.76,-16.22 204.58,45.23 22.97,24.01 37.62,37.91 63.38,63.8 56.43,56.71 107.02,50.73 169.67,89.97l-48.73 26.51 266.25 277.49c7.71,-41.94 -7.63,-4.26 17.56,-43.38 84.21,-130.71 54.66,-117.6 53.9,-283.82 -35.11,15.1 -140.19,54.44 -181.2,55.81 17.92,-27.88 48.39,-51.66 66.77,-78.37 25.47,-37 38.51,-64.49 50.54,-113.29 -92.53,33.83 -128.98,67.06 -252.88,27.5 -224.31,-71.6 -134.46,-187.39 -260.16,-174.09 -64.57,6.83 -61.71,-2.78 -120.82,24.06 -55.16,25.05 -176.37,68.6 -143.05,142.15z"/>
  <path class="fil0" d="M1893.49 4167.59c69.61,-18.34 76.02,75.43 375.06,14.64l-185.73 331.51c-44.01,-7.47 -190.74,-80.65 -242.79,-106.94 -12.41,-6.27 -24.05,-11.09 -39.38,-19.94l-35.08 -27.44c-14.85,31.01 -26.62,23.35 -29.32,66.63 83.76,51.62 242.93,98.07 307.82,152.26l-42.13 170.57c33.19,15.14 41.3,32.88 72.42,40.56 41.59,-140.93 119.31,-328.82 189.02,-444.9 146.66,-244.24 133.77,-195.35 297.07,-341.42 -20.69,-13.74 -271.69,65.76 -325.28,75.59 -117.56,21.55 -177.74,23.66 -288.06,35.63 -44.59,4.84 -48.62,13.28 -53.63,53.27z"/>
  <path class="fil0" d="M4180.82 1661.38l1.39 251.23 184.02 -0.67 -1.07 -472.53c0.19,-33.37 -4.6,-37.65 13.73,-54.97l-4.25 -104.32c-48.86,-13.91 -133.27,-10.28 -189.59,1.13l-4.23 380.12z"/>
  <path class="fil12" d="M1765.57 4359.41l35.08 27.44c15.34,8.85 26.97,13.67 39.38,19.94 52.05,26.29 198.78,99.47 242.79,106.94l185.73 -331.51c-299.04,60.79 -305.44,-32.98 -375.06,-14.64 -45.14,37.37 -94.45,125.99 -127.92,191.82z"/>
  <path class="fil9" d="M4517.52 4798.91c1.26,-1.82 2.8,-4.38 3.56,-5.62l158.22 -223.03c7.05,61.01 -5.88,84.84 -28.97,130.95 -10.53,21.02 -39.43,89.21 -54.14,97.06 -2.44,23.92 -7.95,18.66 15.76,16.54 30.2,-40.45 130.14,-65.47 171.78,-101.18 -7.02,-75.93 -61.61,-184.25 -94.09,-247.06 -17.33,-33.52 -42.03,-74.27 -63.98,-105.04 -14.97,-20.99 -22.22,-33.02 -35.07,-49.23l-43.25 -44.34 -30.73 38.45c-1.27,1.12 -3.15,2.66 -4.48,3.7l-102.7 49.11c12.12,55.86 56.71,126.32 76.52,193.78 23.49,79.99 38.59,155.41 31.58,245.91z"/>
  <path class="fil13" d="M4934.29 4552.25c23.07,-29 20.48,-11.57 80.3,-38.21 28.25,-12.58 52.48,-23.4 81.84,-35.02 28.26,-11.19 56.18,-24.27 82.49,-35.85 98.82,-43.48 77.03,-11.18 75.54,-51.54 -25.82,-56.55 -163.91,-272.89 -220.82,-307.03 -16.91,15.53 3,1.6 -17.49,8.8 -39.81,13.99 -49.49,2.14 -74.32,-14.13l0.04 -30.67c-25.94,1.53 -35.27,0.24 -59.72,-0.81 -67.89,-2.92 -54.9,10.67 -58.62,14.52 73.66,18.22 246.85,99.96 240.09,169.18 -21.41,56.2 -144.8,124.99 -214.18,158.91 16.05,38.48 55.86,133.57 84.85,161.85z"/>
  <path class="fil8" d="M4860.83 734.28c17.17,15.23 330.09,85.85 375.67,90.89 -23.79,-69.88 -38.72,-220.19 -68.08,-276.79l-333.46 -69.01c-11.49,89.53 60,190.82 77.36,265.82l-51.49 -10.92z"/>
  <path class="fil8" d="M1531.87 551.97c-30.39,69.65 -32.82,213.96 -97.82,255.98 17.85,18.15 -3.02,13.3 28.23,14.32 60.51,-10.11 315.32,-61.64 351.96,-84.46 -30.02,-2.12 -14.75,2.04 -30.82,-13.09 23.75,-26.22 65.7,-198.37 84.77,-250.22 -70.69,13.49 -281.82,50.48 -336.33,77.47z"/>
  <path class="fil9" d="M3200.78 4628.69l-39.47 19.95c-4.07,132.48 209.92,161.91 342.95,142.83 89.77,-12.88 152,-82.06 236.74,-145.08 16.97,-12.62 24.06,-11.97 40.52,-27.06 9.41,-8.63 6.91,-7.12 14.56,-18.32l12.86 -20.24c-17.68,-33.95 -34.84,-33.6 -79.62,-15.21 -25.34,10.41 -50.19,25.57 -72.25,39.02 -85.43,52.13 -182.63,148.98 -329.12,123.75 -49.67,-8.56 -126.63,-44.19 -127.16,-99.64z"/>
  <path class="fil6" d="M3235.34 5144.47c-52.19,26.74 -95.77,121.09 -127.93,170.29 -26.22,40.11 -39.58,58.86 -5.19,105.09 91.9,123.52 139.02,-30.9 217.38,-137.68 71.36,-97.24 -0.99,-180.35 -84.26,-137.7z"/>
  <path class="fil5" d="M4934.29 4552.25l46.67 129.28c68.76,-14.18 111.76,-52.36 168.4,-81.94 58.81,-30.72 112.39,-53.79 167.06,-88.96 -3.32,-34.84 -37.47,-97.99 -61.95,-119 1.49,40.36 23.28,8.06 -75.54,51.54 -26.32,11.58 -54.23,24.66 -82.49,35.85 -29.36,11.62 -53.59,22.44 -81.84,35.02 -59.82,26.65 -57.24,9.21 -80.3,38.21z"/>
  <path class="fil0" d="M3732.72 1936.18l90.43 2.15 20.18 -1.78c21.36,-85.5 7.29,-287.61 12.86,-387.9l-127.77 -6.48 4.31 394.01z"/>
  <path class="fil14" d="M3588.52 5255.69c12.47,30.32 20.53,26.86 39.88,43.97 -9.54,-4.02 -18.86,-6.65 -32.02,6.5 87.68,60.11 222.26,189.28 338.67,67.25 -10.95,-32.67 -79.42,-65.16 -129.79,-106.87l-132.45 -108.88c-8.17,27.58 -2.05,9.17 -13.16,19.65 -1.02,0.96 -5.45,0.56 -7.97,1.55 -5.45,67.93 -5,69.86 -63.17,76.83z"/>
  <path class="fil5" d="M2175.9 1712.19l-3.79 2.79c14.7,11.61 283.82,65.21 350.45,103.38l4.99 -96.38 37.45 0.02c37.63,-6.77 22.79,17.87 26.76,-20.69 -46.6,3.19 -206.33,-11.1 -240.09,-29.43 -1.14,-29.24 8.01,-80.62 -18.66,-94.31l-144.08 1.43c0.23,27.32 1.24,54.76 1.43,82.07 0.23,33.6 9.92,48.86 -14.48,51.12z"/>
  <path class="fil0" d="M4005.87 1939.02l104.58 4.63 6.07 -282.03 -11.92 -64.56 -107.86 -2.12c-2.57,65.42 -11.83,297.41 9.12,344.08z"/>
  <path class="fil6" d="M2906.29 5250.95c12.6,44.64 37.27,74.62 90.08,76.56 27.4,-26.36 64.43,-99.96 93.12,-140.37 14.17,-19.95 41.65,-44.85 37.63,-71.89 -4.02,-27.02 -34.86,-54.66 -49.78,-58.72 -67.68,-11.53 -96.99,28.55 -123.64,62.97 -24.01,30.99 -55.97,74.82 -47.41,131.45z"/>
  <path class="fil0" d="M2565.01 1722l-37.45 -0.02 -4.99 96.38c44.76,12.47 128.59,51.04 149.14,78.96l23.1 26.48c-4.3,-51.67 24.7,-207.5 8.44,-325.98l-97.91 9.39c-7.92,55 -1.96,76 -3.73,124.9 -19.2,0.75 -11.45,6.17 -36.61,-10.1z"/>
  <path class="fil6" d="M3511.24 5562.88c35.69,-47.63 -10.37,39.66 18.31,-31.6 0.76,-1.9 1.56,-5.14 2.2,-7.74l-40.29 -2.58 -41.92 0.82c12.39,-40.36 92.65,-141.47 5.44,-176.03 -73.86,-29.26 -119.89,38.24 -131.55,93.46 71.39,20.12 28.91,37.81 69.84,35.13 38.69,-2.54 23.23,-48.81 34.48,-71.98 22.66,36.22 -13.52,28.29 21.35,55.64 -89.93,60.03 -72.8,-6.2 -131.32,-9.69 -28.39,52.95 -9.59,104.67 36.27,125.88 59.23,27.4 110.02,-5.23 157.18,-11.31z"/>
  <path class="fil0" d="M2333.03 1577.56l-4.85 -147.98 -147.27 -0.61 -2.85 150.57c47.32,-12.87 105.2,-11.2 154.96,-1.98z"/>
  <path class="fil2" d="M2595.96 5816.25c-12.58,-31.38 -24.08,-60.48 -50.73,-83.87 -169.35,58.79 89.44,130.59 104.19,129.82 -10.47,-77.98 48.76,-197.64 -56.72,-188.89 -13.83,47.54 11.15,88.28 12.29,108.41 2.39,42.09 8.36,13.01 -9.03,34.54z"/>
  <path class="fil0" d="M2065.86 1707.95l106.26 7.02 3.79 -2.79 4.76 -134.29c-26.92,20.7 -90.98,32.81 -114.8,3.01 0,39.54 -12.2,94.29 0,127.05z"/>
 </g>
</svg>
